# xmcd
#
# Track frame offsets:
#   150
#   10464
#   23357
#   33396
#   48158
#   57552
#   71959
#   82509
#   99393
#   113807
#   127168
#   137815
#   153033
#   162978
#   174443
#   182467
#   196402
#   205504
#   212944
#   227319
#   236928
#
# Disc length: 3372 seconds
#
# Revision: 0
# Processed by: cddbd v1.5.2PL0 Copyright (c) Steve Scherf et al.
# Submitted via: GXTranscoder 2.0.1939
#
DISCID=120d2a15
DTITLE=Bratri Nedvedove - Stezkami bratri Nedvedu [CD3)
DYEAR=2006
DGENRE=Folk
TTITLE0=Dum na konci namesti
TTITLE1=Perina
TTITLE2=Tuzka
TTITLE3=Kohout
TTITLE4=Hrad
TTITLE5=Rejdiva
TTITLE6=Zrnka
TTITLE7=Ostrov jmenem mladi
TTITLE8=Izrael
TTITLE9=Prazdny dum
TTITLE10=Cos mi chtel
TTITLE11=Zpivam ti min
TTITLE12=Madlenka
TTITLE13=Safran
TTITLE14=Kytka
TTITLE15=Brana
TTITLE16=Nova
TTITLE17=Ctyrlistek
TTITLE18=Osmnact
TTITLE19=Ma zena Julie
TTITLE20=Odpust
EXTD=
EXTT0=
EXTT1=
EXTT2=
EXTT3=
EXTT4=
EXTT5=
EXTT6=
EXTT7=
EXTT8=
EXTT9=
EXTT10=
EXTT11=
EXTT12=
EXTT13=
EXTT14=
EXTT15=
EXTT16=
EXTT17=
EXTT18=
EXTT19=
EXTT20=
PLAYORDER=
